<?xml version="1.0" encoding="utf-8"?>
<!-- Generator: Adobe Illustrator 23.0.1, SVG Export Plug-In . SVG Version: 6.00 Build 0)  -->
<svg version="1.1" id="Layer_1" xmlns="http://www.w3.org/2000/svg" xmlns:xlink="http://www.w3.org/1999/xlink" x="0px" y="0px"
	 viewBox="0 0 300 300" style="enable-background:new 0 0 300 300;" xml:space="preserve">
<style type="text/css">
	.st0{fill-rule:evenodd;clip-rule:evenodd;fill:#FFFFFF;}
	.st1{fill:none;stroke:#FF5200;stroke-width:20;stroke-linejoin:round;}
	.st2{fill:none;stroke:#FF5200;stroke-width:20;}
	.st3{fill-rule:evenodd;clip-rule:evenodd;fill:#256589;}
</style>
<g id="Слой_x0020_1">
	<rect x="2269.8" y="-8078" class="st0" width="16489.4" height="16489.4"/>
	<polyline class="st1" points="229.3,78.2 206.8,104 184.2,78.2 161.6,104 139,78.2 116.4,104 93.8,78.2 71.3,104 	"/>
	<polyline class="st1" points="229.3,133.8 206.8,159.6 184.2,133.8 161.6,159.6 139,133.8 116.4,159.6 93.8,133.8 71.3,159.6 	"/>
	<polyline class="st1" points="229.3,189.4 206.8,215.2 184.2,189.4 161.6,215.2 139,189.4 116.4,215.2 93.8,189.4 71.3,215.2 	"/>
	<polygon class="st2" points="7,7 300,7 300,300 7,300 	"/>
	<rect x="535" y="-105.1" class="st3" width="716.6" height="716.6"/>
</g>
</svg>
