<?xml version="1.0" encoding="utf-8"?>
<!-- Generator: Adobe Illustrator 23.0.1, SVG Export Plug-In . SVG Version: 6.00 Build 0)  -->
<svg version="1.1" id="Layer_1" xmlns="http://www.w3.org/2000/svg" xmlns:xlink="http://www.w3.org/1999/xlink" x="0px" y="0px"
	 viewBox="0 0 800 800" style="enable-background:new 0 0 800 800;" xml:space="preserve">
<style type="text/css">
	.st0{fill:#F21170;}
</style>
<path class="st0" d="M400,50c193.3,0,350,156.7,350,350S593.3,750,400,750S50,593.3,50,400S206.7,50,400,50z M400,200
	c-25.2,0-45.7,20.4-45.7,45.6c0,1.4,0.1,2.8,0.2,4.2l18.3,200.3c1.6,15,15.1,26,30.1,24.4c12.9-1.4,23-11.5,24.4-24.4l18.2-200.3
	c2.3-25.1-16.2-47.3-41.3-49.6C402.8,200.1,401.4,200,400,200z M400,600c22.1,0,40-17.9,40-40s-17.9-40-40-40s-40,17.9-40,40
	S377.9,600,400,600L400,600z"/>
</svg>
